<svg xmlns="http://www.w3.org/2000/svg" width="135.04" height="24" viewBox="0 0 135.04 24"><defs><style>.a{fill:#00b956;}</style></defs><path class="a" d="M36.66,18.68a1.5,1.5,0,1,1,0-3,1.486,1.486,0,0,1,1.48,1.52,1.5,1.5,0,0,1-1.48,1.48m-3.52,0a1.477,1.477,0,0,1-1.48-1.48,1.5,1.5,0,1,1,3,0,1.538,1.538,0,0,1-1.52,1.48m-3.52,0a1.5,1.5,0,1,1,0-3,1.5,1.5,0,0,1,0,3M29.86.2V12.56h0a.973.973,0,0,1-.96.96H27.42a.106.106,0,0,0-.12.12V24a3.2,3.2,0,0,0,1.08.12A12.006,12.006,0,0,0,29.86.2" transform="translate(-16.38 -0.12)"/><path class="a" d="M9.72,9.88A1.486,1.486,0,0,1,8.24,8.36a1.5,1.5,0,1,1,3,0A1.545,1.545,0,0,1,9.72,9.88M12,0A12,12,0,0,0,9.44,23.72V12.96h0A1,1,0,0,1,10.4,12h1.48a.106.106,0,0,0,.12-.12V0Z"/><path class="a" d="M316.48,16.5v4.52H310.4V16.5h-3V28.46h3V23.62h6.08v4.84h3V16.5Z" transform="translate(-184.44 -9.9)"/><path class="a" d="M185.92,23.12l1.84-4.36a.249.249,0,0,1,.24-.16h0a.249.249,0,0,1,.24.16l1.84,4.36Zm4.56-5.72A2.661,2.661,0,0,0,188,15.8h0a2.742,2.742,0,0,0-2.48,1.6L180.6,28.04h3.2l1.08-2.52h6.2l1.08,2.52h3.2Z" transform="translate(-108.36 -9.48)"/><path class="a" d="M91.5,11.1c-1.4,0-2.28.76-2.96,2.24l-3.88,9-3.92-9c-.68-1.52-1.56-2.24-2.96-2.24a2.7,2.7,0,0,0-2.68,3V25.26h3V14.38l3.92,8.92a2.826,2.826,0,0,0,2.6,2.04h0a2.826,2.826,0,0,0,2.6-2.04l3.92-8.92V25.22h3V14.06A2.635,2.635,0,0,0,91.5,11.1" transform="translate(-45.06 -6.66)"/><path class="a" d="M130.98,26a.231.231,0,0,1-.24-.24V23.64h7.48V21.16h-7.48v-1.8a.258.258,0,0,1,.24-.24h7.4V16.6H129.5a1.818,1.818,0,0,0-1.8,1.8v8.4a1.818,1.818,0,0,0,1.8,1.8h8.88V26.08h-7.4Z" transform="translate(-76.62 -9.96)"/><path class="a" d="M162.54,28.52V19.36a.258.258,0,0,1,.24-.24h7.4V16.6H161.3a1.818,1.818,0,0,0-1.8,1.8V28.56h3.04Z" transform="translate(-95.7 -9.96)"/><path class="a" d="M275.48,25.8h-.96c-2.48,0-3.48-1.12-3.48-3.64h0c0-2.44.84-3.64,3.48-3.64h.96c2.56,0,3.48,1.2,3.48,3.64h0c0,2.52-1,3.64-3.48,3.64m6.4-3.64c0-4.2-1.8-6.16-6.32-6.16h-1.04c-4.52,0-6.32,1.96-6.32,6.16h0c0,4.12,1.84,6.12,6.36,6.12h1c4.48,0,6.32-2,6.32-6.12Z" transform="translate(-160.92 -9.6)"/><path class="a" d="M232.14,19.64c-.44,1.2-1.16,1.96-3.2,1.96h-1.36V14.32h1.84c1.72,0,2.92,1.08,2.92,3.64a6.665,6.665,0,0,1-.2,1.68m-7.6,1.92h-1.36c-2.04,0-2.76-.76-3.2-1.96a5.324,5.324,0,0,1-.16-1.68c0-2.56,1.16-3.64,2.92-3.64h1.84v7.28Zm4.48-9.76H223.1c-4.44,0-6.2,2.24-6.2,6.16a11.066,11.066,0,0,0,.12,1.68c.48,2.76,2.08,4.48,6.24,4.48h1.32v1.52h3V24.12h1.32c4.16,0,5.76-1.68,6.24-4.48a11.064,11.064,0,0,0,.12-1.68c-.04-3.92-1.8-6.16-6.24-6.16" transform="translate(-130.14 -7.08)"/></svg>