<svg xmlns="http://www.w3.org/2000/svg" xmlns:xlink="http://www.w3.org/1999/xlink"><defs><style>.a{fill:#333;}</style><style>.a{fill:#00b956;}</style></defs><symbol id="call" viewBox="0 0 32 32"><g transform="translate(-4 -4)"><path class="a" d="M17,6V4A19,19,0,0,1,36,23H34A17,17,0,0,0,17,6Z"/><path class="a" d="M17,18V16a7,7,0,0,1,7,7H22A5,5,0,0,0,17,18Z"/><path class="a" d="M17,12V10A13,13,0,0,1,30,23H28A11,11,0,0,0,17,12Z"/><path class="a" d="M21.48,36h1L26,32.44l-6.83-6.83-2.78,2.78a12.52,12.52,0,0,1-4.94-4.78l2.78-2.78L7.56,14,4,17.56v1A17.71,17.71,0,0,0,21.48,36ZM6,18.38l1.56-1.56,3.85,4L9,23.23l.33.65a14.79,14.79,0,0,0,6.79,6.63l.65.33,2.4-2.4,4,4L21.62,34h-.14A15.6,15.6,0,0,1,6,18.52Z"/></g></symbol><symbol id="instruction" viewBox="0 0 22.226 31.378"><rect class="a" width="9" height="2" transform="translate(5 7)" fill="currentColor"/><rect class="a" width="11" height="2" transform="translate(5 12)" fill="currentColor"/><rect class="a" width="5" height="3" transform="translate(5 17)" fill="currentColor"/><path class="a" d="M22.226,17V0H0V31.378H22.226ZM19.612,28.764h-17V2.615h17V28.764Zm1.961,0h0" fill="currentColor"/></symbol><symbol id="logo_full" viewBox="0 0 135.04 24"><path class="a" d="M36.66,18.68a1.5,1.5,0,1,1,0-3,1.486,1.486,0,0,1,1.48,1.52,1.5,1.5,0,0,1-1.48,1.48m-3.52,0a1.477,1.477,0,0,1-1.48-1.48,1.5,1.5,0,1,1,3,0,1.538,1.538,0,0,1-1.52,1.48m-3.52,0a1.5,1.5,0,1,1,0-3,1.5,1.5,0,0,1,0,3M29.86.2V12.56h0a.973.973,0,0,1-.96.96H27.42a.106.106,0,0,0-.12.12V24a3.2,3.2,0,0,0,1.08.12A12.006,12.006,0,0,0,29.86.2" transform="translate(-16.38 -0.12)"/><path class="a" d="M9.72,9.88A1.486,1.486,0,0,1,8.24,8.36a1.5,1.5,0,1,1,3,0A1.545,1.545,0,0,1,9.72,9.88M12,0A12,12,0,0,0,9.44,23.72V12.96h0A1,1,0,0,1,10.4,12h1.48a.106.106,0,0,0,.12-.12V0Z"/><path class="a" d="M316.48,16.5v4.52H310.4V16.5h-3V28.46h3V23.62h6.08v4.84h3V16.5Z" transform="translate(-184.44 -9.9)"/><path class="a" d="M185.92,23.12l1.84-4.36a.249.249,0,0,1,.24-.16h0a.249.249,0,0,1,.24.16l1.84,4.36Zm4.56-5.72A2.661,2.661,0,0,0,188,15.8h0a2.742,2.742,0,0,0-2.48,1.6L180.6,28.04h3.2l1.08-2.52h6.2l1.08,2.52h3.2Z" transform="translate(-108.36 -9.48)"/><path class="a" d="M91.5,11.1c-1.4,0-2.28.76-2.96,2.24l-3.88,9-3.92-9c-.68-1.52-1.56-2.24-2.96-2.24a2.7,2.7,0,0,0-2.68,3V25.26h3V14.38l3.92,8.92a2.826,2.826,0,0,0,2.6,2.04h0a2.826,2.826,0,0,0,2.6-2.04l3.92-8.92V25.22h3V14.06A2.635,2.635,0,0,0,91.5,11.1" transform="translate(-45.06 -6.66)"/><path class="a" d="M130.98,26a.231.231,0,0,1-.24-.24V23.64h7.48V21.16h-7.48v-1.8a.258.258,0,0,1,.24-.24h7.4V16.6H129.5a1.818,1.818,0,0,0-1.8,1.8v8.4a1.818,1.818,0,0,0,1.8,1.8h8.88V26.08h-7.4Z" transform="translate(-76.62 -9.96)"/><path class="a" d="M162.54,28.52V19.36a.258.258,0,0,1,.24-.24h7.4V16.6H161.3a1.818,1.818,0,0,0-1.8,1.8V28.56h3.04Z" transform="translate(-95.7 -9.96)"/><path class="a" d="M275.48,25.8h-.96c-2.48,0-3.48-1.12-3.48-3.64h0c0-2.44.84-3.64,3.48-3.64h.96c2.56,0,3.48,1.2,3.48,3.64h0c0,2.52-1,3.64-3.48,3.64m6.4-3.64c0-4.2-1.8-6.16-6.32-6.16h-1.04c-4.52,0-6.32,1.96-6.32,6.16h0c0,4.12,1.84,6.12,6.36,6.12h1c4.48,0,6.32-2,6.32-6.12Z" transform="translate(-160.92 -9.6)"/><path class="a" d="M232.14,19.64c-.44,1.2-1.16,1.96-3.2,1.96h-1.36V14.32h1.84c1.72,0,2.92,1.08,2.92,3.64a6.665,6.665,0,0,1-.2,1.68m-7.6,1.92h-1.36c-2.04,0-2.76-.76-3.2-1.96a5.324,5.324,0,0,1-.16-1.68c0-2.56,1.16-3.64,2.92-3.64h1.84v7.28Zm4.48-9.76H223.1c-4.44,0-6.2,2.24-6.2,6.16a11.066,11.066,0,0,0,.12,1.68c.48,2.76,2.08,4.48,6.24,4.48h1.32v1.52h3V24.12h1.32c4.16,0,5.76-1.68,6.24-4.48a11.064,11.064,0,0,0,.12-1.68c-.04-3.92-1.8-6.16-6.24-6.16" transform="translate(-130.14 -7.08)"/></symbol><symbol id="question" viewBox="0 0 29 24.379"><g transform="translate(-1 -3.596)" fill="currentColor"><path class="a" d="M19.9,20.56,18.43,19,17,20.38,19.45,23h.89l4.44-4.68-1.46-1.38Z"/><path class="a" d="M28.43,22.61A8.291,8.291,0,0,0,18.7,11.58,8.358,8.358,0,1,0,2,12.33a8.25,8.25,0,0,0,.54,2.94L1,18l2,2.71,3.58-1a8.2,8.2,0,0,0,5.77.68,8.32,8.32,0,0,0,12.1,6.66l3.32.92L30,25.5ZM7.19,17.81l-.29-.17-3.09.78-.49-.65L4.76,15.3l-.18-.41A6.36,6.36,0,1,1,7.2,17.81ZM27,25.7l-2.84-.77-.36.21a6.32,6.32,0,0,1-9.51-5.46,8.35,8.35,0,0,0,4.28-6,6.33,6.33,0,0,1,7.84,8.55l-.18.41,1.17,2.55Z"/><circle class="a" cx="1.1" cy="1.1" r="1.1" transform="translate(9.27 14.9)"/><path class="a" d="M10.37,14H9.49V12h.87a1,1,0,1,0-1-1h-2a3,3,0,1,1,3,3Z"/></g></symbol></svg>